<svg xmlns="http://www.w3.org/2000/svg" xmlns:xlink="http://www.w3.org/1999/xlink" width="53" height="53" viewBox="0 0 53 53">
  <defs>
    <clipPath id="clip-path">
      <rect id="Rectangle_738" data-name="Rectangle 738" width="30" height="30" fill="#ffcb04"/>
    </clipPath>
  </defs>
  <g id="Group_664" data-name="Group 664" transform="translate(-296 -389)">
    <g id="Group_597" data-name="Group 597" transform="translate(184 108)">
      <g id="Ellipse_2" data-name="Ellipse 2" transform="translate(112 281)" fill="#fff" stroke="#ffcb04" stroke-width="1">
        <circle cx="26.5" cy="26.5" r="26.5" stroke="none"/>
        <circle cx="26.5" cy="26.5" r="26" fill="none"/>
      </g>
    </g>
    <g id="Group_669" data-name="Group 669" transform="translate(308.18 401.18)">
      <path id="Path_2208" data-name="Path 2208" d="M258.471,0l1.323,7.937h9.361L263.556,0Z" transform="translate(-243.43 -0.054)" fill="#ffcb04"/>
      <path id="Path_2209" data-name="Path 2209" d="M5.6,0,0,7.937H9.4L11.389,0Z" transform="translate(-0.054 -0.054)" fill="#ffcb04"/>
      <path id="Path_2210" data-name="Path 2210" d="M160,144.056l1.323-.882,1.984,1.323,1.984-1.323,1.323.882V140H160Z" transform="translate(-150.315 -131.477)" fill="#ffcb04"/>
      <path id="Path_2211" data-name="Path 2211" d="M164.792,0l-1.984,7.937h6.309L167.794,0Z" transform="translate(-152.942 -0.054)" fill="#ffcb04"/>
      <g id="Group_668" data-name="Group 668" transform="translate(-0.18 -0.18)">
        <g id="Group_667" data-name="Group 667" transform="translate(0)" clip-path="url(#clip-path)">
          <path id="Path_2212" data-name="Path 2212" d="M22.943,146.2a8.017,8.017,0,0,1,3.1.62V140H17.362v6.119l-2.48-1.654-1.86,1.24-1.86-1.24-2.48,1.654V140H0v18.6H16.153a8.058,8.058,0,0,1,6.79-12.4m-11.782,9.921H2.48v-8.681h8.681Z" transform="translate(0.118 -131.201)" fill="#ffcb04"/>
          <path id="Path_2213" data-name="Path 2213" d="M66.2,280H60v6.2h6.2Zm-1.24,4.961H61.24v-1.24h3.721Zm0-2.48H61.24v-1.24h3.721Z" transform="translate(-56.162 -262.52)" fill="#ffcb04"/>
          <path id="Path_2214" data-name="Path 2214" d="M266.821,260a6.821,6.821,0,1,0,6.821,6.821A6.821,6.821,0,0,0,266.821,260m-1.24,9.558-2.3-2.3.877-.877,1.422,1.422,3.282-3.282.877.877Z" transform="translate(-243.76 -243.76)" fill="#ffcb04"/>
        </g>
      </g>
    </g>
  </g>
</svg>
