<svg xmlns="http://www.w3.org/2000/svg" width="53" height="53" viewBox="0 0 53 53">
  <g id="Group_663" data-name="Group 663" transform="translate(-112 -389)">
    <g id="Ellipse_2" data-name="Ellipse 2" transform="translate(112 389)" fill="#fff" stroke="#ffcb04" stroke-width="1">
      <circle cx="26.5" cy="26.5" r="26.5" stroke="none"/>
      <circle cx="26.5" cy="26.5" r="26" fill="none"/>
    </g>
    <g id="delivery" transform="translate(123.068 385.569)">
      <g id="Group_593" data-name="Group 593" transform="translate(11.051 17.098)">
        <path id="Path_2163" data-name="Path 2163" d="M274.426,22.21l1.779.687a.257.257,0,0,0,.35-.24V17.612a.514.514,0,0,0-.514-.514h-3.6a.514.514,0,0,0-.514.514v5.046a.257.257,0,0,0,.35.24l1.779-.687A.513.513,0,0,1,274.426,22.21Z" transform="translate(-265.5 -17.098)" fill="#ffcb04"/>
        <path id="Path_2164" data-name="Path 2164" d="M187.87,17.1h-3.343a.514.514,0,0,0-.514.514v6.159a.514.514,0,0,1-.7.491l-2.458-.949a.514.514,0,0,0-.371,0l-2.457.949a.514.514,0,0,1-.7-.493V17.612a.514.514,0,0,0-.514-.514h-3.342a1.544,1.544,0,0,0-1.543,1.543v9.468a.516.516,0,0,0,.652.5,4.13,4.13,0,0,1,3.121.423c6.156,3.594,6,3.449,6.511,3.964a.511.511,0,0,0,.609.087c4.483-2.44,5.257-2.966,6.121-3.049a.515.515,0,0,0,.469-.512V18.641A1.545,1.545,0,0,0,187.87,17.1Z" transform="translate(-171.93 -17.098)" fill="#ffcb04"/>
      </g>
      <path id="Path_2165" data-name="Path 2165" d="M7.392,213.018v10.67a2.574,2.574,0,0,1-2.571,2.571H2.571A2.574,2.574,0,0,1,0,223.687v-10.67a2.574,2.574,0,0,1,2.571-2.571h2.25A2.574,2.574,0,0,1,7.392,213.018Zm23.027-.433a2.384,2.384,0,0,0-3.113-.755l-4.767,2.589a.512.512,0,0,0-.241.619,4.108,4.108,0,0,1-5.258,5.207l-4.429-1.575a.514.514,0,0,1,.341-.971l4.432,1.577a3.077,3.077,0,0,0,3.982-3.77,3.824,3.824,0,0,0-.136-.374,3.132,3.132,0,0,0-.6-.9c-.387-.409-.172-.235-6.327-3.828a3.091,3.091,0,0,0-3.061-.026l-2.62,1.472a.512.512,0,0,0-.256.526c.082.523.052,1.826.051,10.181a.515.515,0,0,0,.451.511c8.762,1.089,8.176,1.029,8.536,1.029a4.094,4.094,0,0,0,2.435-.8l10.048-7.4A2.382,2.382,0,0,0,30.419,212.585Z" transform="translate(0 -180.494)" fill="#ffcb04"/>
    </g>
  </g>
</svg>
